<svg width="41" height="40" viewBox="0 0 41 40" fill="none" xmlns="http://www.w3.org/2000/svg">
<path d="M12.5312 25.5H28.5312C29.0812 25.5 29.5312 25.05 29.5312 24.5C29.5312 23.95 29.0812 23.5 28.5312 23.5H12.5312C11.9812 23.5 11.5312 23.95 11.5312 24.5C11.5312 25.05 11.9812 25.5 12.5312 25.5ZM12.5312 20.5H28.5312C29.0812 20.5 29.5312 20.05 29.5312 19.5C29.5312 18.95 29.0812 18.5 28.5312 18.5H12.5312C11.9812 18.5 11.5312 18.95 11.5312 19.5C11.5312 20.05 11.9812 20.5 12.5312 20.5ZM11.5312 14.5C11.5312 15.05 11.9812 15.5 12.5312 15.5H28.5312C29.0812 15.5 29.5312 15.05 29.5312 14.5C29.5312 13.95 29.0812 13.5 28.5312 13.5H12.5312C11.9812 13.5 11.5312 13.95 11.5312 14.5Z" fill="white"/>
</svg>
